<?xml version="1.0" standalone="no"?>
<!DOCTYPE svg PUBLIC "-//W3C//DTD SVG 20010904//EN"
 "http://www.w3.org/TR/2001/REC-SVG-20010904/DTD/svg10.dtd">
<svg version="1.0" xmlns="http://www.w3.org/2000/svg"
 width="5000.000000pt" height="4000.000000pt" viewBox="0 0 5000.000000 4000.000000"
 preserveAspectRatio="xMidYMid meet">

<g transform="translate(0.000000,4000.000000) scale(0.100000,-0.100000)"
fill="#000000" stroke="none">
<path d="M12896 30991 c5 -4 392 -295 859 -646 894 -672 1784 -1340 3054
-2296 420 -316 866 -650 991 -744 820 -613 1239 -931 1235 -941 -2 -6 -223
-292 -491 -635 -268 -343 -512 -655 -541 -694 -30 -38 -61 -79 -70 -89 -40
-49 -737 -943 -746 -956 -8 -14 939 -1840 2758 -5315 95 -181 808 -1547 1585
-3035 777 -1488 1604 -3072 1838 -3520 234 -448 695 -1330 1023 -1960 329
-630 603 -1145 609 -1145 6 0 280 515 609 1145 328 630 789 1512 1023 1960
234 448 1061 2032 1838 3520 777 1488 1490 2854 1585 3035 1819 3475 2766
5301 2758 5315 -9 13 -706 907 -746 956 -9 10 -40 51 -70 89 -29 39 -273 351
-541 694 -268 343 -489 629 -491 635 -4 10 408 323 1235 941 125 94 634 476
1131 850 1097 825 2172 1632 3092 2323 378 285 681 518 674 520 -7 1 -761 -47
-1677 -108 -916 -61 -2275 -151 -3020 -200 -1647 -109 -1825 -121 -1826 -123
0 -1 -67 -258 -147 -572 -81 -313 -185 -716 -231 -895 -79 -306 -197 -763
-556 -2150 -83 -322 -166 -643 -185 -715 -19 -71 -88 -339 -154 -595 -66 -256
-153 -595 -195 -755 -41 -159 -111 -432 -156 -605 -45 -173 -94 -364 -110
-425 -16 -60 -67 -258 -114 -440 -94 -366 -331 -1284 -461 -1785 -144 -555
-412 -1593 -481 -1860 -36 -140 -94 -365 -129 -500 -35 -135 -116 -447 -180
-695 -64 -247 -166 -641 -226 -875 -61 -234 -137 -531 -171 -660 -33 -129 -77
-300 -98 -380 -21 -80 -68 -262 -105 -405 -37 -143 -106 -413 -155 -600 -48
-187 -118 -457 -155 -600 -37 -143 -86 -334 -110 -425 -23 -91 -91 -352 -150
-580 -58 -228 -133 -516 -165 -640 -32 -124 -100 -385 -150 -580 -50 -195
-113 -438 -140 -540 -26 -102 -67 -259 -90 -350 -23 -91 -64 -248 -90 -350
-27 -102 -89 -342 -139 -535 -112 -436 -220 -852 -392 -1517 -74 -285 -136
-518 -139 -518 -3 0 -65 233 -139 518 -172 665 -280 1081 -392 1517 -50 193
-112 433 -139 535 -26 102 -67 259 -90 350 -23 91 -64 248 -90 350 -27 102
-90 345 -140 540 -50 195 -118 456 -150 580 -32 124 -107 412 -165 640 -59
228 -127 489 -150 580 -24 91 -73 282 -110 425 -37 143 -107 413 -155 600 -49
187 -118 457 -155 600 -37 143 -84 325 -105 405 -21 80 -65 251 -98 380 -34
129 -110 426 -171 660 -60 234 -162 628 -226 875 -64 248 -145 560 -180 695
-35 135 -93 360 -129 500 -69 267 -337 1305 -481 1860 -130 501 -367 1419
-461 1785 -47 182 -98 380 -114 440 -16 61 -65 252 -110 425 -45 173 -115 446
-156 605 -42 160 -129 499 -195 755 -66 256 -135 524 -154 595 -19 72 -102
393 -185 715 -359 1387 -477 1844 -556 2150 -46 179 -150 582 -231 895 -80
314 -147 571 -147 572 -1 2 -179 14 -2511 168 -1122 75 -2478 165 -3014 200
-1071 71 -1019 69 -1005 56z"/>
<path d="M21208 30467 c-60 -36 -82 -72 -86 -141 -3 -55 39 -209 461 -1685
280 -978 473 -1634 484 -1650 32 -42 91 -71 148 -71 46 0 143 46 1237 585 788
389 1205 590 1241 597 57 12 76 8 212 -45 22 -9 65 -16 95 -16 30 0 73 7 95
16 136 53 155 57 212 45 36 -7 453 -208 1241 -597 1094 -539 1191 -585 1237
-585 57 0 116 29 148 71 11 16 204 672 484 1650 422 1476 464 1630 461 1685
-4 69 -26 105 -86 141 -63 39 -121 32 -259 -31 -65 -30 -777 -353 -1583 -719
-806 -365 -1557 -707 -1670 -758 -201 -92 -207 -94 -280 -94 -73 0 -79 2 -280
94 -113 51 -864 393 -1670 758 -806 366 -1518 689 -1583 719 -138 63 -196 70
-259 31z"/>
</g>
</svg>
